Coordinates
version=1
nRows=16
nColumns=42
inDegrees=yes

Units are S.I. units (second, meters, Newtons, ...)
If the header above contains a line with 'inDegrees', this indicates whether rotational values are in degrees (yes) or radians (no).

endheader
time	pelvis_tilt	pelvis_list	pelvis_rotation	pelvis_tx	pelvis_ty	pelvis_tz	hip_flexion_r	hip_adduction_r	hip_rotation_r	knee_angle_r	knee_adduction_r	knee_angle_r_beta	ankle_angle_r	subtalar_angle_r	mtp_angle_r	hip_flexion_l	hip_adduction_l	hip_rotation_l	knee_angle_l	knee_adduction_l	knee_angle_l_beta	ankle_angle_l	subtalar_angle_l	mtp_angle_l	lumbar_extension	lumbar_bending	lumbar_rotation	arm_flex_r	arm_add_r	arm_rot_r	elbow_flex_r	pro_sup_r	wrist_flex_r	wrist_dev_r	arm_flex_l	arm_add_l	arm_rot_l	elbow_flex_l	pro_sup_l	wrist_flex_l	wrist_dev_l
      2.43000000	     13.68811333	      2.02180044	     -2.39877856	      1.65506691	      0.86477951	     -0.17840511	     13.85563926	     -4.57868831	    -15.06672345	     10.81273698	     -3.56209548	      0.18871786	      7.88560800	     24.27379055	     -7.50006846	    -29.54688084	      4.66356568	    -25.81509358	     12.63951610	      0.37184590	      0.22060117	     23.25218770	     28.16577766	     -7.50006846	    -26.95189623	     -3.60583622	     -5.59873477	     -3.92352158	     -2.09651725	    -30.27289321	     31.06121563	     90.00000001	      0.00000000	      0.00000000	      3.62139569	     -5.76383456	     -7.36323939	     47.89556635	     90.00000001	      0.00000000	      0.00000000
      2.44000000	     13.35421330	      2.10523240	     -2.33608030	      1.66767486	      0.86276684	     -0.17699932	     14.50575669	     -4.40590175	    -14.67094024	     11.09679901	     -3.67075249	      0.19367568	      7.81030679	     24.23517153	     -7.50006780	    -29.59377040	      4.55992731	    -25.49513855	     13.50918575	     -0.07830274	      0.23577977	     23.13381651	     28.04143030	     -7.50006780	    -26.43037844	     -3.65209011	     -5.66228406	     -3.97526787	     -2.07286474	    -30.29017517	     30.88301035	     90.00000001	      0.00000000	      0.00000000	      3.71856903	     -5.68732661	     -7.35114301	     47.70086996	     90.00000001	      0.00000000	      0.00000000
      2.45000000	     13.05043295	      1.99567183	     -2.28148498	      1.68067283	      0.86084314	     -0.17537567	     15.05658944	     -3.98648769	    -14.44529395	     11.78600591	     -3.90817957	      0.20570461	      7.80529726	     23.69034141	     -7.50006622	    -29.62190541	      4.16791076	    -25.54195609	     14.61316942	     -0.47141761	      0.25504792	     22.98571448	     27.86728103	     -7.50006622	    -25.89168632	     -3.52033877	     -5.61694310	     -3.97831359	     -2.07452593	    -30.49427165	     30.53740991	     90.00000001	      0.00000000	      0.00000000	      3.82752668	     -5.56088211	     -7.44280467	     47.26523518	     90.00000001	      0.00000000	      0.00000000
      2.46000000	     12.74212322	      1.91307878	     -2.17511866	      1.69382933	      0.85902156	     -0.17366403	     15.51345542	     -3.55203639	    -14.15794944	     12.70406278	     -4.25907861	      0.22172772	      7.60725768	     23.13616148	     -7.50006527	    -29.65560877	      3.78999660	    -25.31241349	     15.66518990	     -0.84274050	      0.27340914	     22.64850573	     27.71374175	     -7.50006527	    -25.35941664	     -3.40873077	     -5.63436435	     -4.05122669	     -2.05049421	    -30.58371900	     30.44224973	     90.00000001	      0.00000000	      0.00000000	      3.81156475	     -5.51317862	     -7.51623674	     47.02249435	     90.00000001	      0.00000000	      0.00000000
      2.47000000	     12.47729378	      1.45744661	     -2.00060877	      1.70728887	      0.85742303	     -0.17176761	     15.66996792	     -2.65398172	    -13.60722348	     13.57412043	     -4.61672973	      0.23691309	      7.18708504	     21.33541657	     -7.50006067	    -29.67362479	      2.92314411	    -25.69582823	     16.91148374	     -1.28885671	      0.29516107	     22.36888932	     28.04940497	     -7.50006067	    -24.86427545	     -2.90291356	     -5.64915191	     -4.02012647	     -1.97683931	    -31.03007878	     30.35773501	     90.00000001	      0.00000000	      0.00000000	      3.72340393	     -5.34585717	     -7.79210745	     46.68584264	     90.00000001	      0.00000000	      0.00000000
      2.48000000	     12.17888727	      1.22840688	     -1.89605607	      1.72082634	      0.85589770	     -0.16994551	     15.98417275	     -2.05235398	    -13.47463876	     14.85281679	     -5.07138044	      0.25923056	      6.58822777	     20.70456787	     -7.50005935	    -29.69085153	      2.43483052	    -25.58163057	     17.96319959	     -1.75400283	      0.31351698	     21.56360571	     27.71509788	     -7.50005935	    -24.33353791	     -2.64140055	     -5.59986307	     -4.12244744	     -1.97696003	    -30.99443295	     30.36679618	     90.00000001	      0.00000000	      0.00000000	      3.62575652	     -5.25414651	     -7.84236174	     46.43601674	     90.00000001	      0.00000000	      0.00000000
      2.49000000	     11.91848237	      0.96587126	     -1.79515205	      1.73442078	      0.85464915	     -0.16802959	     16.17970231	     -1.41845811	    -13.22717845	     16.16783510	     -5.49294600	      0.28218196	      5.85881118	     20.28684401	     -7.50005852	    -29.70548372	      1.89097238	    -25.47745149	     19.08157457	     -2.17961146	      0.33303630	     20.65072245	     27.36517833	     -7.50005852	    -23.87125026	     -2.35484854	     -5.59628320	     -4.15750488	     -1.94689841	    -30.94450810	     30.42223615	     90.00000001	      0.00000000	      0.00000000	      3.45111455	     -5.16992779	     -7.94394258	     46.19428494	     90.00000001	      0.00000000	      0.00000000
      2.50000000	     11.71134172	      0.50753775	     -1.68100472	      1.74818238	      0.85371861	     -0.16603380	     16.26008346	     -0.59612662	    -13.12095658	     17.51870358	     -5.93592670	      0.30575906	      4.99221703	     19.75407771	     -7.50005757	    -29.71162234	      1.16997737	    -25.59465493	     20.26453477	     -2.71278461	      0.35368285	     19.37406235	     26.86935129	     -7.50005757	    -23.47106631	     -1.86093461	     -5.56929615	     -4.19447027	     -1.95517033	    -30.86723387	     30.52770472	     90.00000001	      0.00000000	      0.00000000	      3.23721097	     -5.08013230	     -8.14609194	     45.91719884	     90.00000001	      0.00000000	      0.00000000
      2.51000000	     11.59061925	     -0.07993613	     -1.54450002	      1.76194908	      0.85320187	     -0.16401722	     16.17385537	      0.37506342	    -12.85695814	     18.82076409	     -6.38270394	      0.32848430	      4.21002606	     19.19112816	     -7.50005669	    -29.71591451	      0.30523803	    -25.78947489	     21.56679456	     -3.28421483	      0.37641157	     17.84848076	     26.36505526	     -7.50005669	    -23.19901695	     -1.22593156	     -5.54371749	     -4.17353948	     -1.96805147	    -30.74920899	     30.65984186	     90.00000001	      0.00000000	      0.00000000	      3.00184068	     -4.95369240	     -8.43346492	     45.64228177	     90.00000001	      0.00000000	      0.00000000
      2.52000000	     11.55398160	     -0.78541127	     -1.40335580	      1.77574693	      0.85311814	     -0.16194766	     15.92583136	      1.48640966	    -12.36216742	     20.08071144	     -6.77371367	      0.35047453	      3.70457861	     18.28736195	     -7.50005558	    -29.71375279	     -0.66008303	    -25.97874978	     22.97583516	     -3.89314626	      0.40100397	     15.98856733	     25.60785239	     -7.50005558	    -23.04050394	     -0.47369752	     -5.50399808	     -4.12509141	     -1.99994007	    -30.52285693	     30.82846589	     90.00000001	      0.00000000	      0.00000000	      2.73822995	     -4.81157108	     -8.80814354	     45.37829554	     90.00000001	      0.00000000	      0.00000000
      2.53000000	     11.62759238	     -1.47548426	     -1.29363945	      1.78951724	      0.85345798	     -0.15990056	     15.53490131	      2.52989985	    -11.61894526	     21.40621069	     -6.98965522	      0.37360886	      3.60251618	     17.19210165	     -7.50005459	    -29.70333638	     -1.59625136	    -26.07980480	     24.54972386	     -4.47600215	      0.42847351	     13.82680247	     24.62626347	     -7.50005459	    -23.02711975	      0.24542707	     -5.45967740	     -4.04356424	     -2.04139994	    -30.25623933	     30.99380612	     90.00000001	      0.00000000	      0.00000000	      2.44238577	     -4.68112654	     -9.16826790	     45.13357965	     90.00000001	      0.00000000	      0.00000000
      2.54000000	     11.78796386	     -2.38451288	     -1.24781206	      1.80291556	      0.85441350	     -0.15772054	     14.67808378	      3.99916200	     -9.10167555	     22.21378183	     -6.78808771	      0.38770363	      3.07966610	     12.97740819	     -7.50005018	    -29.68999015	     -2.66847089	    -25.71032548	     26.25611760	     -4.86230842	      0.45825570	     11.50992943	     22.42134819	     -7.50005018	    -23.18651463	      1.16443941	     -5.30826522	     -3.98670623	     -2.18905353	    -29.24034752	     31.28738476	     90.00000001	      0.00000000	      0.00000000	      2.20728150	     -4.46528955	     -9.80901024	     44.83299972	     90.00000001	      0.00000000	      0.00000000
      2.55000000	     12.08635791	     -3.18806048	     -1.10895989	      1.81660461	      0.85556925	     -0.15562025	     13.82858723	      5.17671811	     -7.97042967	     23.28811129	     -6.75499296	      0.40645422	      3.66921152	     11.35783296	     -7.50004775	    -29.65961786	     -3.68174935	    -25.40844696	     28.13335046	     -5.39859840	      0.49101960	      8.87755547	     20.54632816	     -7.50004775	    -23.45746263	      1.97216376	     -5.24306093	     -3.86686671	     -2.20690795	    -28.89368451	     31.58702672	     90.00000001	      0.00000000	      0.00000000	      1.90161940	     -4.36284994	    -10.18465261	     44.62270206	     90.00000001	      0.00000000	      0.00000000
      2.56000000	     12.49148399	     -3.93985002	     -1.00436252	      1.83014086	      0.85713006	     -0.15377951	     12.68214820	      6.29190719	     -6.46291208	     24.08121643	     -6.54955070	      0.42029651	      4.11932994	      8.93061884	     -7.50004430	    -29.60675551	     -4.52344714	    -24.69007379	     30.14246489	     -5.86406441	      0.52608526	      6.04442987	     17.78124804	     -7.50004430	    -23.85905777	      2.74423705	     -5.24551808	     -3.69534614	     -2.29740024	    -28.24827733	     31.98464191	     90.00000001	      0.00000000	      0.00000000	      1.54253416	     -4.25694888	    -10.58731073	     44.39184061	     90.00000001	      0.00000000	      0.00000000
      2.57000000	     13.08691864	     -4.42170835	     -0.93721140	      1.84343333	      0.85887980	     -0.15198417	     11.42050021	      6.92491718	     -5.95620768	     24.94723585	     -6.32727774	      0.43541140	      4.97742858	      8.72207901	     -7.50004392	    -29.49583497	     -5.13629061	    -24.25816693	     32.45681947	     -6.51852313	      0.56647836	      3.89738385	     16.89415207	     -7.50004392	    -24.48896773	      3.17548452	     -5.12312716	     -3.46829274	     -2.26121205	    -28.13833283	     32.30221777	     90.00000001	      0.00000000	      0.00000000	      1.30976716	     -4.22242773	    -10.76058908	     44.24683588	     90.00000001	      0.00000000	      0.00000000
      2.58000000	     13.63303645	     -5.40864748	     -0.71700152	      1.85684572	      0.86101061	     -0.15012918	      9.69246041	      8.35868890	     -4.77284440	     24.83578433	     -6.26603668	      0.43346621	      5.68444715	      6.48819574	     -7.50004017	    -29.31229414	     -6.23378865	    -22.69172257	     34.92689978	     -6.52747681	      0.60958940	      0.73493330	     11.50794216	     -7.50004017	    -25.06256885	      4.17535376	     -4.99948972	     -3.44822653	     -2.40271330	    -27.06210443	     32.98460802	     90.00000001	      0.00000000	      0.00000000	      0.96896748	     -4.06177631	    -11.28134622	     44.11205329	     90.00000001	      0.00000000	      0.00000000
